# Blender 3.6.0
# www.blender.org
mtllib cristal-texturizado.mtl.mtl
o cristal
v -0.000000 -0.403360 -0.024574
v 0.525720 1.353476 -1.040932
v 0.579239 1.234925 0.784637
v 0.000000 1.520088 1.185868
v -0.850640 1.234925 0.784637
v -0.525720 1.353476 -1.040932
v 0.850640 2.818231 -0.286125
v 0.525720 2.658027 0.720268
v -0.525720 2.658027 0.720268
v -0.850640 2.818231 -0.286125
v -0.000000 2.786191 -0.654247
v -0.000000 3.306935 -0.073822
v 0.280840 0.492256 -0.864693
v -0.281124 0.492256 -0.865251
v -0.828455 0.351306 0.109463
v 0.740635 0.543762 0.114701
v 0.000000 0.058371 0.653655
v 1.062856 1.721800 -0.396078
v 0.000000 0.954225 1.152692
v -1.205927 1.722246 -0.393052
vn 0.7664 -0.5506 -0.3308
vn 0.0003 -0.2002 -0.9798
vn 0.6892 -0.5989 0.4077
vn -0.5520 -0.6893 0.4693
vn -0.6402 -0.6229 -0.4496
vn -0.0000 0.2606 -0.9655
vn 0.8972 0.1314 0.4217
vn 0.5878 0.0586 0.8069
vn -0.4614 0.1449 0.8753
vn 0.3584 0.3636 -0.8599
vn 0.9481 0.0499 0.3140
vn -0.0000 0.3787 0.9255
vn -0.9164 0.2242 0.3316
vn -0.3584 0.3636 -0.8599
vn 0.2525 0.7202 -0.6462
vn 0.5303 0.7938 0.2976
vn -0.0000 0.7743 0.6328
vn -0.5303 0.7938 0.2976
vn -0.2525 0.7202 -0.6462
vn 0.8024 -0.4082 -0.4352
vn -0.7363 -0.4022 -0.5441
vn 0.0007 -0.6843 -0.7292
vn 0.6652 -0.3978 0.6319
vn -0.5400 -0.4683 0.6994
vn 0.6920 0.2034 -0.6926
vn 0.9348 -0.1092 0.3379
vn 0.5524 -0.0488 0.8321
vn 0.8626 -0.3247 -0.3879
vn -0.8021 -0.3294 -0.4981
vn -0.8924 0.2528 0.3738
vn -0.5860 0.2647 -0.7659
vn -0.9593 -0.1863 0.2123
vn -0.4113 -0.0533 0.9099
vt 0.000088 0.512626
vt 0.218362 0.723701
vt 0.031583 0.912144
vt 0.342403 0.804073
vt 0.255496 0.647083
vt 0.362572 0.660271
vt 0.146357 0.152393
vt 0.195957 0.391904
vt 0.264331 0.519238
vt 0.583815 0.690841
vt 0.355230 0.256316
vt 0.503633 0.000088
vt 0.776894 0.152717
vt 0.396479 0.363983
vt 0.554193 0.329862
vt 0.363910 0.457949
vt 0.506232 0.450952
vt 0.740135 0.915132
vt 0.515352 0.563672
vt 0.776894 0.532751
vt 0.416631 0.999912
vt 0.399408 0.564564
vt 0.333411 0.365978
s 0
usemtl cristal
f 1/1/1 13/2/1 16/3/1
f 2/4/2 13/2/2 14/5/2 6/6/2
f 1/1/3 16/7/3 17/8/3
f 1/1/4 17/8/4 15/9/4
f 1/1/5 15/9/5 14/5/5
f 2/4/6 6/6/6 11/10/6
f 3/11/7 18/12/7 7/13/7
f 4/14/8 3/11/8 8/15/8
f 5/16/9 4/14/9 9/17/9
f 2/4/10 11/10/10 7/18/10
f 3/11/11 7/13/11 8/15/11
f 4/14/12 8/15/12 9/17/12
f 5/16/13 9/17/13 10/19/13
f 6/6/14 10/19/14 11/10/14
f 7/18/15 11/10/15 12/20/15
f 8/15/16 7/13/16 12/20/16
f 9/17/17 8/15/17 12/20/17
f 10/19/18 9/17/18 12/20/18
f 11/10/19 10/19/19 12/20/19
f 16/3/20 2/4/20 18/21/20
f 6/6/21 15/9/21 20/22/21
f 14/5/22 13/2/22 1/1/22
f 17/8/23 16/7/23 3/11/23 19/23/23
f 15/9/24 17/8/24 19/23/24 5/16/24
f 7/18/25 18/21/25 2/4/25
f 18/12/26 3/11/26 16/7/26
f 19/23/27 3/11/27 4/14/27
f 2/4/28 16/3/28 13/2/28
f 14/5/29 15/9/29 6/6/29
f 20/22/30 5/16/30 10/19/30
f 10/19/31 6/6/31 20/22/31
f 20/22/32 15/9/32 5/16/32
f 5/16/33 19/23/33 4/14/33
